<?xml version="1.0" standalone="no"?>
<!DOCTYPE svg PUBLIC "-//W3C//DTD SVG 20010904//EN"
 "http://www.w3.org/TR/2001/REC-SVG-20010904/DTD/svg10.dtd">
<svg version="1.0" xmlns="http://www.w3.org/2000/svg"
 width="225.000000pt" height="350.000000pt" viewBox="0 0 225.000000 350.000000"
 preserveAspectRatio="xMidYMid meet">

<g transform="translate(0.000000,350.000000) scale(0.100000,-0.100000)"
fill="#000000" stroke="none">
<path d="M1041 3399 c-13 -39 -14 -139 -2 -172 9 -23 7 -24 -31 -25 -113 -5
-294 -96 -427 -217 -52 -47 -100 -85 -105 -85 -26 -1 -285 -50 -326 -63 l-45
-13 1 -50 c2 -40 38 -185 93 -369 25 -82 23 -96 -24 -189 -25 -49 -75 -129
-111 -178 -36 -48 -64 -92 -62 -98 4 -12 97 114 167 228 30 48 50 78 46 67 -4
-11 -16 -56 -27 -100 -23 -92 -39 -121 -125 -227 l-63 -77 0 -184 0 -183 45
-22 c58 -28 74 -28 48 1 -12 12 -31 41 -42 63 -25 48 -41 152 -23 140 7 -4 12
-14 12 -22 0 -28 49 -112 98 -168 54 -61 100 -141 89 -152 -7 -7 -156 38 -201
61 l-26 14 0 -292 0 -292 156 -78 c85 -43 185 -95 221 -117 36 -22 68 -40 72
-40 4 0 18 -11 30 -24 l23 -24 -32 -128 c-18 -71 -47 -185 -66 -253 -19 -69
-34 -126 -34 -128 0 -2 76 -3 168 -3 165 0 169 0 180 23 l11 22 0 -22 1 -23
419 0 c326 0 421 3 425 13 5 9 7 9 12 0 4 -10 45 -13 155 -13 126 0 149 2 149
15 0 8 -19 97 -41 198 -23 100 -42 209 -43 242 l-1 60 170 85 c94 47 194 96
223 108 l52 24 -2 551 c-1 354 -4 505 -8 422 -14 -245 -103 -470 -252 -633
-49 -53 -83 -100 -90 -123 -6 -21 -15 -36 -19 -33 -4 2 -15 39 -25 81 -13 58
-15 102 -11 187 11 201 21 241 81 331 29 45 61 96 71 115 26 51 75 191 74 215
0 11 -15 -23 -33 -76 -31 -91 -62 -155 -117 -241 -28 -43 -46 -51 -26 -10 22
41 54 149 69 227 21 114 16 378 -11 504 -26 124 -71 244 -106 286 -22 26 -20
20 9 -35 102 -193 137 -536 82 -803 -14 -64 -30 -125 -36 -135 -9 -14 -10 -13
-4 7 20 72 -2 357 -42 556 -54 268 -209 614 -319 715 -16 14 -5 -5 25 -45 60
-81 155 -271 200 -399 37 -108 90 -309 90 -343 0 -30 -21 -72 -52 -100 l-23
-22 0 102 c-1 102 -16 190 -41 237 -18 34 -17 26 6 -65 11 -43 20 -90 20 -104
-1 -24 -5 -21 -56 34 -81 87 -252 301 -259 325 -3 11 -10 20 -15 20 -9 0 47
-145 86 -222 13 -26 24 -52 24 -58 0 -21 -105 45 -166 105 -83 81 -106 130
-138 290 -2 11 -4 -3 -5 -31 -1 -42 18 -136 44 -220 14 -44 -26 37 -56 113
-38 97 -50 104 -19 12 33 -96 107 -233 156 -288 l45 -49 -58 -8 c-33 -4 -85
-2 -121 4 -101 17 -159 67 -224 190 -21 40 -28 48 -23 27 3 -16 18 -50 33 -74
15 -25 35 -58 44 -75 10 -17 38 -52 64 -78 l45 -47 -32 12 c-56 21 -131 99
-177 185 -99 187 -107 374 -21 543 16 34 25 58 19 54 -34 -21 -87 -174 -93
-271 -3 -51 -12 -75 -49 -141 -50 -85 -128 -261 -128 -286 0 -31 -18 -26 -22
5 -15 101 18 284 70 391 16 31 25 57 20 57 -23 0 -86 -174 -103 -287 -5 -34
-109 -239 -134 -265 -12 -13 0 132 20 252 40 232 147 475 262 598 17 17 26 32
20 32 -17 0 -87 -88 -136 -171 -116 -197 -175 -416 -184 -689 -7 -188 10 -329
51 -445 l8 -20 -17 20 c-49 60 -124 268 -151 420 -23 132 -24 393 -1 485 20
82 14 91 -10 14 -28 -91 -25 -380 5 -532 34 -172 89 -310 169 -426 19 -28 32
-58 30 -68 -3 -11 30 -71 90 -160 132 -197 192 -321 206 -420 7 -44 0 -47 -33
-16 -14 13 -28 22 -33 20 -5 -1 -6 2 -2 8 3 5 -59 42 -147 84 -170 82 -263
148 -330 234 -50 63 -99 154 -119 220 -8 29 -15 39 -21 30 -4 -7 -5 2 -1 21 3
20 2 32 -3 29 -12 -8 -14 26 -16 202 -1 157 9 235 53 405 94 367 235 660 378
786 134 119 314 204 417 197 l49 -3 -36 -16 c-40 -18 -109 -76 -109 -91 0 -5
20 8 45 30 42 37 118 68 137 56 17 -11 7 15 -10 28 -33 23 -46 61 -45 129 0
107 13 112 56 25 20 -41 42 -95 49 -121 11 -42 14 -46 38 -40 47 13 55 13 120
3 128 -19 319 -135 415 -252 24 -30 41 -43 45 -35 5 7 10 8 14 1 3 -6 1 -12
-6 -14 -8 -3 -2 -18 18 -44 125 -157 299 -521 415 -864 25 -74 39 -104 39 -85
0 37 -41 157 -114 333 l-54 130 47 -33 c53 -38 111 -68 117 -62 3 2 -25 21
-61 42 -36 21 -72 46 -80 55 -16 18 -20 -1 59 286 20 73 36 144 36 158 0 36
-39 52 -189 77 -245 41 -249 42 -316 111 -73 74 -165 135 -265 175 -96 39
-120 44 -195 44 l-61 0 -22 67 c-22 69 -74 162 -91 162 -5 0 -14 -14 -20 -31z
m-561 -536 c-1 -13 -40 -56 -45 -51 -3 3 4 17 16 31 21 27 29 33 29 20z m1350
-11 c13 -10 21 -26 19 -37 -3 -15 -9 -12 -32 18 -30 39 -24 49 13 19z m71 -81
c13 -11 24 -31 25 -50 2 -37 -8 -40 -30 -6 -9 14 -23 36 -32 50 -14 22 -14 25
-1 25 8 0 25 -8 38 -19z m-1481 4 c0 -3 -10 -25 -22 -48 l-23 -42 -3 35 c-3
24 2 38 14 47 18 13 34 17 34 8z m1561 -116 c16 -16 20 -30 17 -60 -2 -24 1
-39 8 -39 26 0 45 -37 39 -73 -7 -36 -7 -35 -61 74 -30 61 -54 112 -54 115 0
12 33 1 51 -17z m-1638 -39 c-28 -51 -45 -53 -45 -6 0 34 19 56 49 56 l24 0
-28 -50z m-43 -67 c-1 -5 -11 -28 -24 -52 -21 -40 -23 -42 -29 -21 -7 26 6 66
25 73 20 8 28 8 28 0z m584 -168 l6 -30 -59 -1 -60 -1 24 47 c13 26 32 56 42
65 16 17 17 16 29 -17 6 -18 14 -47 18 -63z m1206 49 c0 -8 -4 -13 -9 -10 -5
4 -7 -3 -4 -14 6 -24 -12 -27 -21 -4 -6 17 9 44 25 44 5 0 9 -7 9 -16z m-1855
-4 c3 -5 2 -17 -3 -26 -8 -14 -10 -12 -14 10 -5 26 5 35 17 16z m1081 -97 c-9
-9 -22 7 -31 37 -7 25 -7 25 15 -3 12 -15 19 -31 16 -34z m-425 -3 c10 -6 33
-38 50 -71 16 -33 49 -81 72 -106 50 -54 134 -100 151 -83 8 8 6 15 -9 28 -11
9 -28 27 -38 38 -16 20 -14 20 33 -4 43 -21 65 -25 129 -24 l78 1 -18 -37
c-11 -21 -19 -55 -18 -82 l1 -45 19 62 c11 36 31 74 49 91 36 37 103 55 151
42 53 -15 115 -73 135 -127 26 -67 25 -176 -3 -231 -20 -42 -14 -61 8 -21 8
15 14 18 22 10 19 -19 31 -12 14 7 -14 16 -15 21 -3 37 8 11 20 16 30 12 9 -4
16 -2 16 2 0 5 -7 11 -15 15 -19 7 -20 56 -1 56 8 0 28 11 44 25 l30 25 11
-28 c10 -24 7 -43 -25 -138 -57 -173 -95 -264 -137 -331 -71 -115 -207 -189
-412 -224 -142 -24 -373 9 -494 70 -112 57 -248 402 -254 642 l-2 84 59 103
c32 56 62 105 66 107 5 3 10 -12 12 -33 2 -31 -3 -46 -28 -79 -18 -23 -35 -39
-40 -35 -4 4 -4 2 0 -5 8 -14 -13 -63 -27 -63 -5 0 -5 -6 2 -13 6 -8 7 -18 3
-22 -4 -5 -1 -5 6 0 10 5 13 1 10 -16 -2 -15 -12 -26 -28 -30 l-25 -6 28 -8
c34 -9 37 -42 5 -55 -22 -9 -22 -9 3 -9 31 -1 46 -36 26 -60 -10 -12 -9 -14 7
-8 13 5 24 0 38 -18 29 -37 35 -23 7 16 -51 72 -31 218 39 292 50 52 82 67
141 67 75 0 123 -47 157 -155 l13 -40 0 36 c1 53 -52 153 -96 180 -43 27 -116
28 -162 4 -19 -9 -31 -11 -31 -5 0 14 77 49 108 50 12 0 22 4 22 9 0 8 -38 3
-88 -13 -22 -7 -23 -6 -17 16 9 28 34 78 47 96 13 15 102 16 129 2z m769 -164
c104 -117 119 -141 102 -158 -8 -8 -13 -6 -17 8 -26 80 -86 154 -155 189 -38
19 -51 33 -69 74 -28 67 -26 73 12 30 17 -20 75 -84 127 -143z m-226 63 c5 -4
-8 -15 -29 -23 -46 -20 -57 -12 -81 51 -15 37 -15 46 -4 53 10 6 28 -4 60 -32
25 -23 49 -45 54 -49z m62 -34 c18 -14 18 -14 -9 -15 -15 0 -41 -7 -56 -15
-24 -12 -31 -12 -47 -1 -17 13 -16 15 16 29 45 20 72 20 96 2z m132 -31 c45
-38 87 -92 79 -100 -3 -3 -24 15 -47 40 -23 25 -50 48 -61 51 -10 4 -24 15
-29 26 -17 31 11 23 58 -17z m-978 -31 c-1 -5 -12 -21 -25 -38 -30 -36 -34
-19 -4 19 21 26 29 32 29 19z m-57 -93 c-3 -11 -10 -23 -16 -27 -7 -4 -8 0 -4
11 4 10 7 22 7 27 0 5 4 9 9 9 5 0 7 -9 4 -20z m1141 -40 c-7 -6 -24 22 -23
40 0 9 6 5 14 -10 7 -14 11 -27 9 -30z m-1581 -17 c-5 -2 -7 -19 -5 -37 2 -19
0 -41 -5 -50 -10 -19 -8 67 4 104 6 22 8 23 11 5 2 -10 0 -21 -5 -22z m1710
-84 c-7 -7 -12 -2 -15 15 -3 14 -1 26 5 26 5 0 4 6 -3 15 -7 9 -9 23 -4 37 7
19 10 14 18 -30 6 -35 6 -56 -1 -63z m-102 59 c-8 -39 -25 -40 -29 -2 -2 17 0
24 7 19 6 -3 11 -1 11 4 0 6 4 11 9 11 5 0 5 -15 2 -32z m119 -157 c0 -60 -3
-74 -26 -100 -14 -17 -29 -31 -33 -31 -18 0 -6 38 22 67 28 29 29 35 23 82 -4
33 -3 51 4 51 6 0 10 -28 10 -69z m-1743 -18 c-2 -16 -4 -5 -4 22 0 28 2 40 4
28 2 -13 2 -35 0 -50z m1688 -32 l-26 -26 10 28 c6 15 16 39 23 55 l12 27 4
-29 c3 -21 -3 -36 -23 -55z m-1688 -33 c-3 -7 -5 -2 -5 12 0 14 2 19 5 13 2
-7 2 -19 0 -25z m1747 -46 c-1 -39 -9 -49 -54 -72 -46 -24 -74 -18 -64 14 12
40 33 82 31 61 -3 -29 27 -30 59 -1 16 14 29 26 29 26 0 0 0 -13 -1 -28z
m-143 -155 c-10 -9 -11 -8 -5 6 3 10 9 15 12 12 3 -3 0 -11 -7 -18z m-1692
-49 c11 -18 11 -18 -14 -2 -29 19 -30 21 -11 21 7 0 19 -9 25 -19z m121 -10
c0 -6 -6 -5 -15 2 -8 7 -15 14 -15 16 0 2 7 1 15 -2 8 -4 15 -11 15 -16z m634
-209 c-3 -5 2 -22 11 -40 27 -51 11 -43 -23 12 -18 27 -32 52 -32 54 0 3 11 0
25 -7 13 -6 22 -15 19 -19z m94 -20 c25 -9 21 -29 -5 -29 -19 0 -73 31 -73 42
0 8 36 2 78 -13z m892 -11 c29 -21 29 -22 9 -36 -24 -16 -23 -17 -37 26 -13
38 -10 39 28 10z m-753 -34 c99 -29 196 -29 253 1 18 9 34 14 37 11 15 -15
-15 -40 -98 -81 l-91 -46 -93 55 c-51 31 -95 62 -99 71 -7 19 -12 20 91 -11z
m-176 3 c-1 -12 -15 -9 -19 4 -3 6 1 10 8 8 6 -3 11 -8 11 -12z m114 -40 c79
-44 154 -91 155 -97 0 -3 -39 -31 -88 -63 -65 -43 -94 -57 -116 -55 -28 3 -30
7 -47 75 -9 39 -24 86 -33 104 -9 18 -15 33 -14 33 2 1 19 9 38 18 19 9 37 17
40 17 3 0 32 -14 65 -32z m579 2 c-8 -13 -24 -1 -24 18 0 13 3 13 15 3 8 -7
12 -16 9 -21z m-137 -16 c44 -36 45 -38 40 -84 -3 -26 -13 -63 -21 -83 -21
-51 -50 -48 -171 19 -54 30 -103 55 -108 55 -27 0 10 27 103 74 58 30 106 54
108 55 2 1 24 -16 49 -36z m97 -225 c14 -56 28 -122 31 -145 l7 -43 -36 0
c-32 0 -35 -2 -33 -27 2 -26 -1 -28 -33 -28 -32 0 -35 2 -32 27 l2 26 -127 1
c-71 1 -186 4 -257 7 -127 7 -128 6 -122 -14 9 -28 -25 -48 -55 -32 -22 12
-21 31 1 38 7 3 10 0 6 -6 -8 -14 13 -27 25 -15 15 15 -24 38 -71 41 -24 2
-46 5 -48 7 -7 6 20 195 28 195 20 0 26 -30 20 -95 -4 -38 -6 -71 -6 -71 9
-13 626 -29 679 -17 19 4 25 9 18 17 -17 22 -53 205 -46 238 10 44 19 24 49
-104z m-827 116 c-3 -3 -12 -4 -19 -1 -8 3 -5 6 6 6 11 1 17 -2 13 -5z m493
-9 c41 -21 53 -81 20 -107 -47 -38 -130 -11 -130 43 0 22 50 79 70 79 6 0 24
-7 40 -15z m-117 -57 c-3 -18 -9 -37 -13 -43 -4 -5 -17 -40 -29 -77 -25 -76
-23 -75 -140 -61 l-54 6 7 60 c3 33 8 62 10 65 2 2 14 -1 25 -8 16 -8 21 -8
21 2 0 7 13 13 29 14 33 1 83 23 121 54 14 11 26 20 27 20 1 0 0 -15 -4 -32z
m234 -6 c70 -36 126 -42 142 -14 8 14 10 15 14 2 11 -36 37 -163 35 -166 -2
-1 -41 -4 -87 -6 l-84 -3 -12 35 c-7 20 -24 59 -39 88 -34 67 -48 105 -39 100
5 -2 36 -18 70 -36z m-134 -109 c8 -16 18 -38 21 -50 7 -21 4 -23 -28 -23 -20
0 -36 3 -36 6 0 12 23 94 26 94 2 0 10 -12 17 -27z m-297 -220 c-11 -11 -19 6
-11 24 8 17 8 17 12 0 3 -10 2 -21 -1 -24z m614 -13 c-1 -12 -4 -11 -15 4 -8
10 -12 23 -8 29 7 11 23 -12 23 -33z m-639 -73 c-8 -8 -11 -5 -11 9 0 27 14
41 18 19 2 -9 -1 -22 -7 -28z m659 -5 c0 -21 -2 -24 -10 -12 -13 20 -13 53 0
45 6 -3 10 -18 10 -33z m-679 -85 c-8 -8 -11 -5 -11 9 0 27 14 41 18 19 2 -9
-1 -22 -7 -28z m699 -3 c0 -14 -4 -23 -10 -19 -5 3 -10 15 -10 26 0 10 5 19
10 19 6 0 10 -12 10 -26z m-719 -87 c-8 -8 -11 -5 -11 9 0 27 14 41 18 19 2
-9 -1 -22 -7 -28z m739 -8 c0 -10 -4 -19 -10 -19 -5 0 -10 12 -10 26 0 14 4
23 10 19 6 -3 10 -15 10 -26z m-759 -82 c-8 -8 -11 -5 -11 9 0 27 14 41 18 19
2 -9 -1 -22 -7 -28z m769 -4 c0 -22 -2 -25 -10 -13 -13 20 -13 40 0 40 6 0 10
-12 10 -27z m-789 -86 c-8 -8 -11 -5 -11 9 0 27 14 41 18 19 2 -9 -1 -22 -7
-28z m802 3 c3 -11 2 -22 -3 -25 -4 -3 -10 6 -12 20 -6 30 7 34 15 5z m-822
-93 c-13 -13 -15 1 -4 30 7 17 8 17 11 -1 2 -10 -1 -23 -7 -29z m839 -8 c0
-10 -4 -19 -10 -19 -5 0 -10 12 -10 26 0 14 4 23 10 19 6 -3 10 -15 10 -26z"/>
<path d="M269 2533 c-13 -16 -12 -17 4 -4 9 7 17 15 17 17 0 8 -8 3 -21 -13z"/>
<path d="M860 2225 c0 -3 15 -11 33 -19 19 -7 48 -31 65 -52 18 -21 32 -34 32
-28 0 5 -17 26 -37 46 -45 42 -93 70 -93 53z"/>
<path d="M768 2119 c-16 -9 -16 -11 3 -30 11 -11 17 -24 14 -29 -4 -6 5 -10
19 -10 16 0 31 -9 40 -22 19 -31 28 -97 18 -133 -6 -19 -5 -37 2 -48 9 -15 6
-22 -13 -38 -13 -10 -34 -19 -47 -19 -29 0 -68 36 -57 53 13 19 10 177 -3 177
-6 0 -16 10 -21 23 -11 22 -11 22 -23 -8 -20 -50 -9 -164 19 -204 65 -92 168
-60 191 58 18 94 -11 205 -61 231 -23 13 -59 12 -81 -1z"/>
<path d="M1466 2117 c-16 -12 -16 -14 -2 -26 9 -8 16 -19 16 -27 0 -7 10 -14
22 -16 34 -5 53 -52 52 -130 -1 -37 2 -65 7 -62 13 7 -1 -28 -19 -48 -35 -41
-127 -5 -103 39 5 11 7 37 4 59 -3 22 0 57 5 77 9 31 8 37 -5 37 -9 0 -21 8
-28 17 -11 14 -14 9 -24 -36 -19 -88 10 -190 60 -216 78 -41 159 45 159 170 0
121 -79 210 -144 162z"/>
<path d="M786 2008 c-18 -25 -21 -100 -6 -129 15 -28 49 -24 60 7 21 54 2 144
-30 144 -5 0 -16 -10 -24 -22z"/>
<path d="M1476 2008 c-10 -13 -16 -44 -16 -75 0 -42 4 -55 22 -67 20 -14 24
-14 40 1 13 12 18 31 18 72 -1 82 -32 115 -64 69z"/>
<path d="M1152 1765 c0 -16 2 -22 5 -12 2 9 2 23 0 30 -3 6 -5 -1 -5 -18z"/>
<path d="M1060 1674 c-97 -18 -172 -40 -190 -56 -74 -69 77 -270 229 -303 23
-5 31 -4 27 4 -4 6 -14 11 -22 11 -50 0 -179 94 -210 153 -19 36 -8 52 55 80
38 17 66 19 208 19 137 -1 169 -4 205 -20 62 -27 73 -43 54 -80 -31 -59 -163
-152 -218 -152 -9 0 -19 -4 -22 -9 -7 -11 63 4 110 24 84 35 180 165 172 233
-6 50 -118 87 -288 96 -47 3 -96 3 -110 0z m190 -19 c60 -7 146 -29 170 -45
18 -11 -422 -13 -485 -2 -47 9 -41 14 40 36 93 25 134 26 275 11z"/>
<path d="M1440 695 c-10 -12 -9 -16 5 -21 23 -9 40 10 22 25 -11 9 -17 8 -27
-4z"/>
<path d="M1106 1001 c-3 -5 0 -11 7 -14 8 -3 14 1 14 9 0 16 -13 19 -21 5z"/>
<path d="M1175 1001 c6 -11 4 -13 -8 -8 -10 3 -17 2 -17 -2 0 -7 23 -21 35
-21 6 0 -1 30 -10 37 -4 5 -5 2 0 -6z"/>
<path d="M1130 955 c0 -13 -12 -19 -32 -16 -16 2 -7 -19 11 -29 28 -15 67 -12
81 5 11 13 10 14 -6 8 -17 -6 -18 -5 -4 13 11 15 11 16 0 7 -8 -7 -23 -13 -34
-12 -17 0 -18 2 -5 7 14 6 15 9 3 20 -12 11 -14 10 -14 -3z m39 -41 c2 -2 -7
-4 -22 -4 -14 0 -29 5 -32 10 -6 10 42 4 54 -6z"/>
<path d="M1198 3136 c44 -21 142 -97 181 -141 18 -21 35 -35 37 -32 8 8 -106
120 -151 150 -22 14 -53 29 -70 32 l-30 6 33 -15z"/>
<path d="M2047 2288 c29 -38 44 -237 29 -373 -5 -42 -4 -46 5 -25 6 14 12 86
13 160 1 104 -3 148 -17 193 -10 31 -22 57 -29 57 -7 0 -7 -4 -1 -12z"/>
<path d="M2120 2290 c0 -6 12 -15 27 -21 16 -6 43 -22 61 -36 18 -14 36 -22
39 -19 8 8 -17 27 -79 61 -27 14 -48 21 -48 15z"/>
<path d="M250 2250 c0 -5 5 -10 10 -10 6 0 10 5 10 10 0 6 -4 10 -10 10 -5 0
-10 -4 -10 -10z"/>
<path d="M250 2197 c0 -20 4 -37 10 -37 5 0 7 14 3 33 -8 45 -13 47 -13 4z"/>
<path d="M261 2134 c-4 -72 85 -305 161 -422 56 -86 138 -186 145 -178 3 3
-16 29 -42 58 -115 128 -178 260 -253 528 -6 22 -10 27 -11 14z"/>
</g>
</svg>
